<?xml version="1.0" encoding="UTF-8" standalone="no"?>
<!-- Created with Inkscape (http://www.inkscape.org/) -->

<svg
   xmlns:dc="http://purl.org/dc/elements/1.1/"
   xmlns:cc="http://creativecommons.org/ns#"
   xmlns:rdf="http://www.w3.org/1999/02/22-rdf-syntax-ns#"
   xmlns:svg="http://www.w3.org/2000/svg"
   xmlns="http://www.w3.org/2000/svg"
   xmlns:sodipodi="http://sodipodi.sourceforge.net/DTD/sodipodi-0.dtd"
   xmlns:inkscape="http://www.inkscape.org/namespaces/inkscape"
   width="109.72442mm"
   height="92.908356mm"
   viewBox="0 0 388.78731 329.20283"
   id="svg2"
   version="1.1"
   inkscape:version="0.91 r13725"
   sodipodi:docname="chicken.svg">
  <sodipodi:namedview
     id="base"
     pagecolor="#ffffff"
     bordercolor="#666666"
     borderopacity="1.0"
     inkscape:pageopacity="0.0"
     inkscape:pageshadow="2"
     inkscape:zoom="1.850049"
     inkscape:cx="224.46029"
     inkscape:cy="165.94929"
     inkscape:document-units="px"
     inkscape:current-layer="layer1"
     showgrid="false"
     inkscape:window-width="1680"
     inkscape:window-height="987"
     inkscape:window-x="-8"
     inkscape:window-y="-8"
     inkscape:window-maximized="1"
     fit-margin-top="0"
     fit-margin-left="0"
     fit-margin-right="0"
     fit-margin-bottom="0" />
  <defs
     id="defs4" />
  <metadata
     id="metadata7">
    <rdf:RDF>
      <cc:Work
         rdf:about="">
        <dc:format>image/svg+xml</dc:format>
        <dc:type
           rdf:resource="http://purl.org/dc/dcmitype/StillImage" />
        <dc:title></dc:title>
      </cc:Work>
    </rdf:RDF>
  </metadata>
  <g
     id="layer1"
     inkscape:groupmode="layer"
     inkscape:label="Layer 1"
     transform="translate(-2.6865503,-24.668142)">
    <g
       transform="matrix(0.31363931,0,0,0.31363931,242.53445,71.875003)"
       id="g4199">
      <path
         style="fill:#ff6600;fill-rule:evenodd;stroke:none;stroke-width:1px;stroke-linecap:butt;stroke-linejoin:miter;stroke-opacity:1"
         d="m -458.54274,588.95429 c 7.17142,1.10329 -68.05914,115.55611 -192.17441,130.14343 -93.81886,11.02657 -91.22204,27.97476 -91.22204,40.1377 0,12.16293 2.43259,25.54216 29.19105,18.2444 26.75847,-7.29776 143.52266,-37.70511 158.11819,-37.70511 14.59552,0 9.73035,8.51406 9.73035,8.51406 0,0 -62.03098,43.78657 -55.94951,58.3821 6.08147,14.59552 20.67699,25.54217 31.62364,19.4607 10.94664,-6.08147 14.59552,-24.32588 26.75846,-25.54217 12.16294,-1.21629 25.54217,-14.59553 30.40734,-19.4607 4.86518,-4.86518 35.27252,-17.02811 40.1377,-26.75846 9.83147,-26.15997 46.91055,-19.57357 80.27538,-10.94665 8.51406,2.43259 26.75847,17.02812 41.35399,18.24441 14.59553,1.21629 38.9214,18.24441 42.57028,6.08147 3.64888,-12.16294 8.51406,-25.54217 -9.73035,-35.27252 -18.2444,-9.73035 -66.89615,-23.10958 -77.8428,-36.48881 -10.94664,-13.37923 -25.54217,-57.16581 -21.89329,-86.35686 3.64889,-29.19105 12.16294,-69.32874 12.16294,-69.32874 l -37.7051,-4.86518 z"
         id="path4147"
         inkscape:connector-curvature="0"
         sodipodi:nodetypes="csssscssssccsssssccc" />
      <path
         style="fill:#ff6600;fill-rule:evenodd;stroke:none;stroke-width:1px;stroke-linecap:butt;stroke-linejoin:miter;stroke-opacity:1"
         d="m -62.030982,541.51883 17.028113,100.95238 -8.514056,65.67986 c 0,0 -29.19105,46.21917 -42.570281,51.08434 -13.379234,4.86518 -29.191054,6.08147 -38.921404,14.59553 -9.73035,8.51405 -27.97475,19.4607 -45.00286,23.10958 -17.02812,3.64888 -38.9214,10.94664 -34.05623,29.19105 4.86518,18.2444 18.46456,23.94061 35.49267,15.42655 17.02812,-8.51405 44.78272,-19.07543 54.51307,-19.07543 9.73035,0 17.02811,-3.64888 26.75846,-8.51406 9.73035,-4.86517 38.9214,-7.29776 38.9214,-7.29776 0,0 8.514056,30.40734 8.514056,40.13769 0,9.73035 1.12097,35.41321 27.974757,34.05622 38.948162,-1.96813 17.8010259,-58.73494 26.758462,-75.41021 6.562514,-12.21685 15.811818,-18.2444 32.839931,-12.16293 17.028112,6.08146 31.623638,9.73035 48.65175,10.94664 17.028114,1.21629 30.407344,3.64888 47.435454,7.29776 17.02811,3.64888 34.67026,-5.30027 47.43546,4.86518 14.58244,11.61259 21.64942,2.31244 31.62363,-1.21629 8.73263,-3.08949 1.2163,-37.70511 -10.94664,-37.70511 -12.16294,0 -55.94951,-9.73035 -72.97762,-13.37923 C 111.89902,760.45171 64.463569,736.12583 45.002869,720.31401 25.542169,704.50219 -7.2977625,680.17632 -2.4325875,635.17345 2.4325875,590.17058 13.379231,542.73512 13.379231,542.73512 Z"
         id="path4149"
         inkscape:connector-curvature="0"
         sodipodi:nodetypes="cccssssssscsssssssssssscc" />
      <path
         style="fill:#e9c6af;fill-rule:evenodd;stroke:none;stroke-width:1px;stroke-linecap:butt;stroke-linejoin:miter;stroke-opacity:1"
         d="m -730.66902,745.20915 c -13.42091,2.2494 -32.21613,12.05455 -34.05623,36.48881 12.29144,-9.82416 19.02938,-13.37923 34.05623,-13.37923 4.59258,-6.45067 5.69358,-13.85359 0,-23.10958 z"
         id="path4151"
         inkscape:connector-curvature="0"
         sodipodi:nodetypes="cccc" />
      <path
         style="color:#000000;clip-rule:nonzero;display:inline;overflow:visible;visibility:visible;opacity:1;isolation:auto;mix-blend-mode:normal;color-interpolation:sRGB;color-interpolation-filters:linearRGB;solid-color:#000000;solid-opacity:1;fill:#e9c6af;fill-opacity:1;fill-rule:evenodd;stroke:none;stroke-width:1px;stroke-linecap:butt;stroke-linejoin:miter;stroke-miterlimit:4;stroke-dasharray:none;stroke-dashoffset:0;stroke-opacity:1;color-rendering:auto;image-rendering:auto;shape-rendering:auto;text-rendering:auto;enable-background:accumulate"
         d="m -26.758462,852.89003 c -2.950482,-1.47524 -18.572749,8.95803 -12.162938,17.02811 4.073767,5.12896 18.244406,29.19105 18.244406,29.19105 0,0 10.213153,-27.99877 9.73035,-32.83993 -1.208073,-12.11361 -16.26853,-16.1195 -15.811818,-13.37923 z"
         id="path4155"
         inkscape:connector-curvature="0"
         sodipodi:nodetypes="cscsc" />
      <path
         sodipodi:nodetypes="cccc"
         inkscape:connector-curvature="0"
         id="path4157"
         d="m -587.60119,799.01652 c -11.36472,7.4849 -19.31628,20.88996 -11.11753,43.98107 7.26836,-13.95581 11.99297,-19.93213 25.73614,-26.00926 1.59149,-7.75694 -5.31661,-18.13633 -14.61861,-17.97181 z"
         style="fill:#e9c6af;fill-rule:evenodd;stroke:none;stroke-width:1px;stroke-linecap:butt;stroke-linejoin:miter;stroke-opacity:1" />
      <path
         sodipodi:nodetypes="cccc"
         inkscape:connector-curvature="0"
         id="path4159"
         d="m -315.9504,742.04554 c 13.42091,2.2494 32.21613,12.05455 34.05623,36.48881 -12.29144,-9.82416 -19.02938,-13.37923 -34.05623,-13.37923 -4.59258,-6.45067 -5.69358,-13.85359 0,-23.10958 z"
         style="color:#000000;clip-rule:nonzero;display:inline;overflow:visible;visibility:visible;opacity:1;isolation:auto;mix-blend-mode:normal;color-interpolation:sRGB;color-interpolation-filters:linearRGB;solid-color:#000000;solid-opacity:1;fill:#e9c6af;fill-opacity:1;fill-rule:evenodd;stroke:none;stroke-width:1px;stroke-linecap:butt;stroke-linejoin:miter;stroke-miterlimit:4;stroke-dasharray:none;stroke-dashoffset:0;stroke-opacity:1;color-rendering:auto;image-rendering:auto;shape-rendering:auto;text-rendering:auto;enable-background:accumulate" />
      <path
         style="color:#000000;clip-rule:nonzero;display:inline;overflow:visible;visibility:visible;opacity:1;isolation:auto;mix-blend-mode:normal;color-interpolation:sRGB;color-interpolation-filters:linearRGB;solid-color:#000000;solid-opacity:1;fill:#e9c6af;fill-opacity:1;fill-rule:evenodd;stroke:none;stroke-width:1px;stroke-linecap:butt;stroke-linejoin:miter;stroke-miterlimit:4;stroke-dasharray:none;stroke-dashoffset:0;stroke-opacity:1;color-rendering:auto;image-rendering:auto;shape-rendering:auto;text-rendering:auto;enable-background:accumulate"
         d="m 204.31143,785.76403 c 14.14091,2.37007 33.94445,12.70125 35.88327,38.44635 -12.95085,-10.3512 -20.05027,-14.097 -35.88327,-14.097 -4.83897,-6.79673 -5.99903,-14.5968 0,-24.34935 z"
         id="path4175"
         inkscape:connector-curvature="0"
         sodipodi:nodetypes="cccc" />
      <path
         style="fill:#e9c6af;fill-rule:evenodd;stroke:none;stroke-width:1px;stroke-linecap:butt;stroke-linejoin:miter;stroke-opacity:1"
         d="m -203.98126,813.68055 c -12.50053,5.37748 -22.67819,17.18164 -18.65289,41.35219 9.60155,-12.46611 15.30036,-17.52199 29.89583,-21.09667 2.92622,-7.358 -2.05605,-18.78737 -11.24294,-20.25552 z"
         id="path4179"
         inkscape:connector-curvature="0"
         sodipodi:nodetypes="cccc" />
      <path
         style="fill:#ffdd55;fill-rule:evenodd;stroke:none;stroke-width:1px;stroke-linecap:butt;stroke-linejoin:miter;stroke-opacity:1"
         d="m 394.29705,197.22007 c 0,0 3.3274,-94.83094 -21.62811,-139.750855 C 347.71343,12.549297 224.58583,-139.92665 85.941542,-125.01594 c -149.429892,16.07066 -209.911722,11.19325 -231.539832,-5.44376 -86.46896,-55.87585 -212.26325,23.29644 -265.69048,18.1335 -79.44477,-36.28292 -200.48833,83.684144 -187.28876,116.1043372 14.97331,26.6192108 17.946,33.7266698 -15.32801,85.3013898 -33.27401,51.574723 -59.89322,129.768653 -34.93771,136.423453 24.95551,6.6548 -43.25622,24.95551 -31.61032,59.89322 11.64591,34.93772 34.93772,73.20283 59.89323,76.53023 24.95551,3.32741 13.3096,68.21173 38.26511,81.52134 24.95551,13.3096 80.41504,143.9718 118.68015,145.6355 38.26512,1.6637 19.40701,-4.22095 67.65432,10.75236 48.24732,14.9733 96.49464,39.92881 133.09606,26.61921 36.60141,-13.30961 104.81314,4.9911 138.08715,-14.97331 33.274014,-19.96441 70.424322,26.29158 103.698335,11.31828 33.274013,-14.97331 49.362126,-6.32717 75.981336,-26.29158 26.619211,-19.96441 48.247319,-16.63701 69.875429,-56.56583 21.62811,-39.92882 31.61031,-71.53912 28.28291,-114.79534 -3.3274,-43.25622 41.59252,-69.87543 78.19393,-76.53023 36.60142,-6.6548 106.47684,-4.9911 128.10495,-19.96441 21.62811,-14.9733 34.93771,-131.43235 34.93771,-131.43235 z"
         id="path4197"
         inkscape:connector-curvature="0"
         sodipodi:nodetypes="csscccsssssssssssssssc" />
      <path
         style="fill:#b74800;fill-opacity:1;fill-rule:evenodd;stroke:none;stroke-width:1px;stroke-linecap:butt;stroke-linejoin:miter;stroke-opacity:1"
         d="m 458.93371,340.80443 c 0,0 -39.99881,-2.1052 -62.62971,-11.0523 -22.63091,-8.9471 -33.68321,-14.7364 -66.31382,-17.8942 -32.63061,-3.1578 -33.15691,1.0526 -33.15691,-3.6841 0,-4.7367 6.8419,-15.26271 -2.1052,-19.47311 -8.9471,-4.2104 -12.6312,-6.3156 -12.6312,-6.3156 l 28.9465,-2.6315 77.89242,19.9994 62.62972,27.89391 8.9471,12.6312 z"
         id="path4190"
         inkscape:connector-curvature="0" />
      <path
         style="fill:#ff6600;fill-rule:evenodd;stroke:none;stroke-width:1px;stroke-linecap:butt;stroke-linejoin:miter;stroke-opacity:1"
         d="m 382.09389,185.5459 c 0,0 81.57652,113.15452 86.31322,119.47013 4.7367,6.3156 8.9471,34.7358 4.7367,37.8936 l -4.2104,3.15781 c 0,0 -37.89361,-27.89391 -71.57681,-38.94621 -33.68321,-11.05231 -72.10312,-22.10461 -91.04993,-23.15721 -18.9468,-1.0526 -53.15631,0 -61.05081,-1.5789 -7.89451,-1.5789 -8.42081,-12.6312 28.42021,-16.8416 11.5156,-1.31607 68.94531,2.1052 78.41871,-1.5789 9.47341,-3.68411 2.49795,-25.01551 12.10491,-37.36731 11.0523,-14.2101 0.30344,-44.56956 9.9997,-42.63031 z"
         id="path4186"
         inkscape:connector-curvature="0"
         sodipodi:nodetypes="csscsssssssc" />
      <path
         style="fill:#953a00;fill-opacity:1;fill-rule:evenodd;stroke:none;stroke-width:1px;stroke-linecap:butt;stroke-linejoin:miter;stroke-opacity:1"
         d="m 371.04159,248.70191 c 0,0 -0.5263,6.3156 8.4208,12.6312 8.9471,6.31561 26.31501,12.10491 26.31501,12.10491 0,0 2.6315,-2.6315 -3.6841,-4.7367 -6.31561,-2.1052 -19.47311,-9.99971 -23.68351,-14.73641 -4.2104,-4.7367 -7.3682,-5.263 -7.3682,-5.263 z"
         id="path4188"
         inkscape:connector-curvature="0" />
      <path
         style="color:#000000;clip-rule:nonzero;display:inline;overflow:visible;visibility:visible;opacity:1;isolation:auto;mix-blend-mode:normal;color-interpolation:sRGB;color-interpolation-filters:linearRGB;solid-color:#000000;solid-opacity:1;fill:#953a00;fill-opacity:1;fill-rule:evenodd;stroke:none;stroke-width:1px;stroke-linecap:butt;stroke-linejoin:miter;stroke-miterlimit:4;stroke-dasharray:none;stroke-dashoffset:0;stroke-opacity:1;color-rendering:auto;image-rendering:auto;shape-rendering:auto;text-rendering:auto;enable-background:accumulate"
         d="m 257.02548,206.21418 c -6.0893,12.22921 -37.90308,20.70007 -60.54013,9.4284 -22.63705,-11.27167 -30.02075,-42.59269 -23.93146,-54.82191 6.0893,-12.22921 26.46512,-6.35065 49.10218,4.92102 22.63706,11.27166 41.4587,28.24327 35.36941,40.47249 z"
         id="path4192"
         inkscape:connector-curvature="0"
         sodipodi:nodetypes="sssss" />
      <path
         sodipodi:nodetypes="sssss"
         inkscape:connector-curvature="0"
         id="path4195"
         d="m 246.10319,203.10709 c -4.24773,7.63263 -28.2495,12.70525 -44.8727,4.42806 -16.62319,-8.27719 -24.95677,-29.19771 -20.48519,-38.17805 4.47159,-8.98035 21.09798,-1.96 37.72118,6.31719 16.6232,8.27719 31.05749,21.2861 27.63671,27.4328 z"
         style="color:#000000;clip-rule:nonzero;display:inline;overflow:visible;visibility:visible;opacity:1;isolation:auto;mix-blend-mode:normal;color-interpolation:sRGB;color-interpolation-filters:linearRGB;solid-color:#000000;solid-opacity:1;fill:#000000;fill-opacity:1;fill-rule:evenodd;stroke:none;stroke-width:1px;stroke-linecap:butt;stroke-linejoin:miter;stroke-miterlimit:4;stroke-dasharray:none;stroke-dashoffset:0;stroke-opacity:1;color-rendering:auto;image-rendering:auto;shape-rendering:auto;text-rendering:auto;enable-background:accumulate" />
    </g>
  </g>
</svg>
